<svg xmlns="http://www.w3.org/2000/svg" xmlns:xlink="http://www.w3.org/1999/xlink" width="460" height="111.49" viewBox="0 0 460 111.49">
  <defs>
    <clipPath id="clip-Artboard_6">
      <rect width="460" height="111.49"/>
    </clipPath>
  </defs>
  <g id="Artboard_6" data-name="Artboard 6" clip-path="url(#clip-Artboard_6)">
    <g id="Group_256" data-name="Group 256">
      <text id="design" transform="translate(137.281 82)" fill="#444447" font-size="109" font-family="Bryant-Regular, Bryant"><tspan x="0" y="0">design</tspan></text>
      <g id="Group_66" data-name="Group 66" transform="translate(0.281 20.903)">
        <g id="Group_65" data-name="Group 65">
          <g id="Group_63" data-name="Group 63">
            <g id="Group_62" data-name="Group 62" transform="translate(54.68)">
              <path id="Path_20" data-name="Path 20" d="M3728.515,184.545a5.541,5.541,0,1,0-7.633,7.982l0,0a20.212,20.212,0,0,1,5.136,13.87c0,10.745-7.25,19.482-18.176,19.482s-18.26-8.737-18.26-19.482a20.1,20.1,0,0,1,5.326-14.013,5.522,5.522,0,0,0-7.038-8.5l-.021-.024c-.1.1-.2.2-.307.3-.125.111-.249.221-.365.344a30.17,30.17,0,0,0-9.214,21.9,29.832,29.832,0,0,0,29.879,30.229c16.778,0,29.794-13.455,29.794-30.229A30.221,30.221,0,0,0,3728.515,184.545Z" transform="translate(-3677.961 -171.903)" fill="#65b360"/>
              <path id="Path_21" data-name="Path 21" d="M3707.8,205.535a6.49,6.49,0,0,1-6.483-6.482V178.387a6.439,6.439,0,1,1,12.877,0v20.666A6.446,6.446,0,0,1,3707.8,205.535Z" transform="translate(-3677.961 -171.903)" fill="#65b360"/>
            </g>
            <path id="Path_22" data-name="Path 22" d="M3650.445,235.439c9.434,0,15.1,1.715,15.1,7.914.095,4.283-3.712,8.368-14.074,9.1-11.093.524-17.167-1.782-17.167-7.093C3634.307,238.129,3641.012,235.439,3650.445,235.439Zm22.96-51.526s4.737-1.19,4.553-5.4c0-4.8-4.327-5.359-5.741-5.423a5.8,5.8,0,0,0-1.744.154,12.135,12.135,0,0,0-7.795,6.107c-.116.21-.426.73-.965.29a25.735,25.735,0,0,0-12.417-3.18c-13.01,0-23.55,7.328-23.55,21.117a19.379,19.379,0,0,0,5.31,13.7c.144.153.376.488-.05.766-4.339,2.86-6.455,6.733-6.352,11.713.165,3.9,2.095,6.9,5.526,9.277.069.049.175.146.024.258a15.457,15.457,0,0,0-6.858,14.427c.113,1.265,1.3,15.6,26.888,14.727,28.217,0,28.353-17.4,28.353-18.921.108-6.325-2.285-11.042-6.576-14.055-5.388-3.941-12.785-4.143-18.562-4.143h-10.014c-2.888,0-6.3-.751-6.3-4.2a4.978,4.978,0,0,1,2.684-3.978.441.441,0,0,1,.4-.044,28.547,28.547,0,0,0,9.075,1.48c12.455,0,23.424-7.8,23.438-20.9a19.55,19.55,0,0,0-2.859-10.189.517.517,0,0,1-.022-.485,5.763,5.763,0,0,1,3.552-3.1Zm-24.109,2.945c6.341,0,10.173,4.5,10.173,10.723S3655.637,208.2,3649.3,208.2s-10.086-4.459-10.18-10.369C3639.131,191.445,3642.96,186.858,3649.3,186.858Z" transform="translate(-3623.281 -171.903)" fill="#65b360"/>
          </g>
        </g>
      </g>
    </g>
  </g>
</svg>
